<mxfile host="app.diagrams.net" agent="Mozilla/5.0 (Windows NT 10.0; Win64; x64) AppleWebKit/537.36 (KHTML, like Gecko) Chrome/129.0.0.0 Safari/537.36 Edg/129.0.0.0" version="24.7.14">
  <diagram name="Page-1" id="HwWqeTtycvugQ6sXGDGw">
    <mxGraphModel dx="1177" dy="1182" grid="1" gridSize="10" guides="1" tooltips="1" connect="1" arrows="1" fold="1" page="1" pageScale="1" pageWidth="850" pageHeight="1100" math="0" shadow="0">
      <root>
        <mxCell id="0" />
        <mxCell id="1" parent="0" />
        <mxCell id="wHa-d43y5tyTwQyGDPxa-1" value="Agentic RAG" style="text;html=1;align=center;verticalAlign=middle;whiteSpace=wrap;rounded=0;fontSize=24;fontStyle=1;horizontal=1;" vertex="1" parent="1">
          <mxGeometry x="340" y="30" width="170" height="30" as="geometry" />
        </mxCell>
        <mxCell id="wHa-d43y5tyTwQyGDPxa-7" value="" style="edgeStyle=orthogonalEdgeStyle;rounded=0;orthogonalLoop=1;jettySize=auto;html=1;exitX=1;exitY=1;exitDx=0;exitDy=-15;exitPerimeter=0;" edge="1" parent="1" source="wHa-d43y5tyTwQyGDPxa-2" target="wHa-d43y5tyTwQyGDPxa-6">
          <mxGeometry relative="1" as="geometry" />
        </mxCell>
        <mxCell id="wHa-d43y5tyTwQyGDPxa-2" value="Knowledge Graph enriched by embeddings" style="shape=cylinder3;whiteSpace=wrap;html=1;boundedLbl=1;backgroundOutline=1;size=15;" vertex="1" parent="1">
          <mxGeometry x="180" y="200" width="90" height="110" as="geometry" />
        </mxCell>
        <mxCell id="wHa-d43y5tyTwQyGDPxa-4" value="" style="edgeStyle=orthogonalEdgeStyle;rounded=0;orthogonalLoop=1;jettySize=auto;html=1;startArrow=none;startFill=0;" edge="1" parent="1" source="wHa-d43y5tyTwQyGDPxa-3" target="wHa-d43y5tyTwQyGDPxa-2">
          <mxGeometry relative="1" as="geometry" />
        </mxCell>
        <mxCell id="wHa-d43y5tyTwQyGDPxa-5" value="Enrich User Query&lt;div&gt;by similarity search&lt;/div&gt;" style="edgeLabel;html=1;align=center;verticalAlign=middle;resizable=0;points=[];" vertex="1" connectable="0" parent="wHa-d43y5tyTwQyGDPxa-4">
          <mxGeometry x="-0.1216" y="-4" relative="1" as="geometry">
            <mxPoint x="22" y="4" as="offset" />
          </mxGeometry>
        </mxCell>
        <mxCell id="wHa-d43y5tyTwQyGDPxa-8" value="" style="edgeStyle=orthogonalEdgeStyle;rounded=0;orthogonalLoop=1;jettySize=auto;html=1;" edge="1" parent="1" source="wHa-d43y5tyTwQyGDPxa-3" target="wHa-d43y5tyTwQyGDPxa-6">
          <mxGeometry relative="1" as="geometry" />
        </mxCell>
        <mxCell id="wHa-d43y5tyTwQyGDPxa-9" value="LLM decides which functions to call&lt;div&gt;to further enrich the User Query&lt;/div&gt;" style="edgeLabel;html=1;align=center;verticalAlign=middle;resizable=0;points=[];" vertex="1" connectable="0" parent="wHa-d43y5tyTwQyGDPxa-8">
          <mxGeometry x="0.5154" y="1" relative="1" as="geometry">
            <mxPoint x="-1" y="12" as="offset" />
          </mxGeometry>
        </mxCell>
        <mxCell id="wHa-d43y5tyTwQyGDPxa-3" value="User Query" style="shape=umlActor;verticalLabelPosition=bottom;verticalAlign=top;html=1;outlineConnect=0;" vertex="1" parent="1">
          <mxGeometry x="410" y="100" width="30" height="60" as="geometry" />
        </mxCell>
        <mxCell id="wHa-d43y5tyTwQyGDPxa-12" value="" style="edgeStyle=orthogonalEdgeStyle;rounded=0;orthogonalLoop=1;jettySize=auto;html=1;" edge="1" parent="1" source="wHa-d43y5tyTwQyGDPxa-6" target="wHa-d43y5tyTwQyGDPxa-11">
          <mxGeometry relative="1" as="geometry" />
        </mxCell>
        <mxCell id="wHa-d43y5tyTwQyGDPxa-13" value="Fully enriched User Query&lt;div&gt;by similarity search and data retrieved&lt;/div&gt;&lt;div&gt;from the Knowledge Graph by Function Calls&amp;nbsp;&lt;/div&gt;" style="edgeLabel;html=1;align=center;verticalAlign=middle;resizable=0;points=[];" vertex="1" connectable="0" parent="wHa-d43y5tyTwQyGDPxa-12">
          <mxGeometry x="-0.3333" y="1" relative="1" as="geometry">
            <mxPoint x="-1" y="10" as="offset" />
          </mxGeometry>
        </mxCell>
        <mxCell id="wHa-d43y5tyTwQyGDPxa-6" value="Function Calling by LLM&lt;div&gt;GraphRetrieval.java&lt;/div&gt;" style="ellipse;shape=cloud;whiteSpace=wrap;html=1;" vertex="1" parent="1">
          <mxGeometry x="343" y="370" width="165" height="80" as="geometry" />
        </mxCell>
        <mxCell id="wHa-d43y5tyTwQyGDPxa-11" value="&lt;font style=&quot;font-size: 12px;&quot;&gt;LLM constructs&amp;nbsp;&lt;/font&gt;&lt;div&gt;&lt;font style=&quot;font-size: 12px;&quot;&gt;a response based on fully enriched&amp;nbsp;&lt;/font&gt;&lt;div&gt;&lt;font style=&quot;font-size: 12px;&quot;&gt;User Query&lt;/font&gt;&lt;/div&gt;&lt;/div&gt;" style="ellipse;shape=cloud;whiteSpace=wrap;html=1;" vertex="1" parent="1">
          <mxGeometry x="343" y="540" width="165" height="110" as="geometry" />
        </mxCell>
      </root>
    </mxGraphModel>
  </diagram>
</mxfile>
